<svg width="1440" height="690" viewBox="0 0 1440 690" xmlns="http://www.w3.org/2000/svg" xmlns:xlink="http://www.w3.org/1999/xlink">
  <!-- Top SVG content -->
  <defs>
    <path id="a-top" d="M0 0h1440v165H0z"/>
  </defs>
  <g fill="none" fill-rule="evenodd">
    <mask id="b-top" fill="#fff">
      <use xlink:href="#a-top"/>
    </mask>
    <g mask="url(#b-top)" fill="#F6FBFF">
      <path d="M0 127.6C152.937 41.92 298.933 25.782 437.988 79.187c208.583 80.107 457.536 53.405 594.167 0C1168.785 25.782 1172.696-39.335 1440 30.224c267.304 69.56 0 698.192 0 698.192s-211.887 128.179-591.858 64.09C594.828 749.779 312.114 765.996 0 841.156V127.6z"/>
    </g>
  </g>
  <rect x="0" y="160" width="1440" height="400" fill="#F6FBFF"/>
  <!-- Bottom SVG content, shifted further down -->
  <g transform="translate(0,550)">
    <defs>
      <path id="a-bottom" d="M0 0h1440v139H0z"/>
    </defs>
    <g fill="none" fill-rule="evenodd">
      <mask id="b-bottom" fill="#fff">
        <use xlink:href="#a-bottom"/>
      </mask>
      <g mask="url(#b-bottom)">
        <path d="M0-574.4c152.937-85.68 298.933-101.818 437.988-48.413 208.583 80.107 457.536 53.405 594.167 0 136.63-53.405 140.541-118.522 407.845-48.963 267.304 69.56 0 698.192 0 698.192s-211.887 128.179-591.858 64.09C594.828 47.779 312.114 63.996 0 139.156V-574.4z" fill="#F6FBFF"/>
        <path d="M750-537h560V23H750z"/>
      </g>
    </g>
  </g>
</svg>